<?xml version="1.0" standalone="no"?>
<!DOCTYPE svg PUBLIC "-//W3C//DTD SVG 20010904//EN"
 "http://www.w3.org/TR/2001/REC-SVG-20010904/DTD/svg10.dtd">
<svg version="1.0" xmlns="http://www.w3.org/2000/svg"
 width="266.000000pt" height="145.000000pt" viewBox="0 0 266.000000 145.000000"
 preserveAspectRatio="xMidYMid meet">
<metadata>
Created by potrace 1.16, written by Peter Selinger 2001-2019
</metadata>
<g transform="translate(0.000000,145.000000) scale(0.100000,-0.100000)"
fill="#000000" stroke="none">
<path d="M0 720 l0 -720 1330 0 1330 0 0 720 0 720 -1330 0 -1330 0 0 -720z
m530 201 c41 -43 70 -127 70 -202 0 -89 -51 -204 -87 -197 -8 2 -25 28 -39 60
l-26 56 21 21 c38 38 22 121 -23 121 -32 0 -55 -38 -68 -111 -11 -57 -5 -110
18 -174 14 -38 -43 24 -68 74 -19 38 -22 62 -22 146 0 84 3 107 23 148 32 65
72 97 123 97 35 0 47 -6 78 -39z m369 25 c23 -28 2 -46 -55 -46 l-54 0 -2
-202 c-3 -173 -5 -203 -18 -203 -13 0 -15 30 -18 203 l-2 202 -54 0 c-57 0
-78 18 -55 46 16 20 242 20 258 0z m210 1 c79 -40 95 -168 29 -239 l-31 -33
37 -72 c21 -40 36 -80 34 -89 -7 -39 -29 -20 -74 65 -47 90 -48 91 -86 91
l-38 0 0 -74 c0 -82 -6 -106 -25 -106 -22 0 -25 26 -25 239 0 148 3 210 12
219 16 16 136 15 167 -1z m346 -17 c0 -25 -1 -25 -92 -28 l-93 -3 0 -74 0 -75
85 0 c67 0 87 -3 91 -15 13 -32 -15 -45 -97 -45 l-79 0 0 -70 0 -69 93 -3 c91
-3 92 -3 92 -28 l0 -25 -110 0 -110 0 -3 220 c-1 121 0 225 3 233 3 10 31 12
112 10 108 -3 108 -3 108 -28z m174 -142 l91 -173 0 157 c0 162 3 188 25 188
21 0 25 -36 25 -235 0 -198 -4 -235 -24 -235 -7 0 -53 76 -102 169 l-89 168
-5 -166 c-4 -139 -7 -166 -20 -166 -13 0 -15 32 -18 220 -2 219 -1 245 16 245
5 0 51 -78 101 -172z m357 152 c47 -30 77 -97 82 -190 6 -106 -15 -176 -68
-224 -37 -34 -44 -36 -105 -36 -53 0 -66 3 -75 19 -6 12 -10 100 -10 216 0
116 4 204 10 216 15 28 120 27 166 -1z m304 5 c38 -19 62 -64 48 -88 -8 -16
-12 -15 -38 13 -37 40 -98 42 -135 5 -51 -50 -27 -100 55 -115 30 -5 68 -15
83 -21 82 -34 73 -193 -13 -236 -62 -32 -156 -2 -180 57 -21 50 7 84 31 38 19
-36 40 -47 87 -48 53 0 92 33 92 79 0 40 -21 59 -78 67 -77 11 -111 29 -127
68 -19 44 -19 77 -1 121 27 65 112 93 176 60z"/>
<path d="M975 815 l0 -85 58 0 c72 0 107 28 107 85 0 57 -35 85 -107 85 l-58
0 0 -85z"/>
<path d="M1858 725 l-3 -175 45 0 c26 0 56 7 69 16 34 24 61 91 61 153 0 117
-44 181 -125 181 l-44 0 -3 -175z"/>
</g>
</svg>
